# xmcd CD database file
#
# Track frame offsets:
#	150
#	13208
#	37415
#	55305
#	68574
#	86254
#	99877
#	137257
#	153346
#	165199
#	186861
#	205224
#	218203
#	241212
#	254846
#	276133
#
# Disc length: 3948 seconds
#
# Revision: 0
# Processed by: cddbd v1.5.2PL0 Copyright (c) Steve Scherf et al.
# Submitted via: CDex 1.51
#
DISCID=d90f6a10
DTITLE=Various Artist - Salsa Rhythms
DYEAR=2001
DGENRE=Salsa
TTITLE0=Salsa Forte
TTITLE1=Salsarico
TTITLE2=Negro Jose
TTITLE3=Mi Camino
TTITLE4=La Colegiala
TTITLE5=A Gozar
TTITLE6=Conchita Lamengo
TTITLE7=Salsa Creole
TTITLE8=El Puma
TTITLE9=Havana (The Streets Of La Habana)
TTITLE10=Viva Maria
TTITLE11=Angola
TTITLE12=El Nino
TTITLE13=La Bomba (En Salsa)
TTITLE14=El Cuchipe
TTITLE15=Mambo Extremo
EXTD=YEAR: 2001
EXTT0=
EXTT1=
EXTT2=
EXTT3=
EXTT4=
EXTT5=
EXTT6=
EXTT7=
EXTT8=
EXTT9=
EXTT10=
EXTT11=
EXTT12=
EXTT13=
EXTT14=
EXTT15=
PLAYORDER=
